<svg width="80" height="12" viewBox="0 0 80 12" fill="none" xmlns="http://www.w3.org/2000/svg">
<g clip-path="url(#clip0_778_775)">
<path d="M25.6192 5.68181C25.6192 7.6452 25.0987 9.15794 24.0577 10.22C23.0167 11.2821 21.5535 11.8143 19.6658 11.8143H16V0.0498047H19.9227C21.7411 0.0498047 23.1463 0.53216 24.1359 1.49914C25.1255 2.46385 25.6192 3.85883 25.6192 5.68408M22.4404 5.79731C22.4404 4.71937 22.2348 3.91997 21.8238 3.39912C21.4128 2.87826 20.7895 2.61784 19.9518 2.61784H19.0605V9.20776H19.7418C20.6711 9.20776 21.3547 8.92695 21.7881 8.3676C22.2214 7.80825 22.4404 6.94998 22.4404 5.79731Z" fill="black"/>
<path d="M33.6054 3.91772C32.9129 3.22929 31.9278 2.88281 30.6544 2.88281C29.3163 2.88281 28.2865 3.27911 27.5649 4.07172C26.8434 4.86432 26.4837 6.00114 26.4837 7.48217C26.4837 8.96321 26.8724 10.023 27.6521 10.802C28.4295 11.5788 29.5241 11.9683 30.9314 11.9683C31.6083 11.9683 32.1891 11.9207 32.6761 11.8279C33.1609 11.7351 33.63 11.5697 34.0857 11.3297L33.6367 9.35271C33.3061 9.48859 32.9911 9.59502 32.694 9.66523C32.2628 9.76713 31.7937 9.81695 31.2799 9.81695C30.717 9.81695 30.2747 9.67655 29.9485 9.39801C29.6224 9.11946 29.4504 8.73448 29.4302 8.24307H34.6442V6.89565C34.6442 5.60031 34.2979 4.60616 33.6032 3.91772M29.4883 6.33856C29.5285 5.85847 29.6648 5.50519 29.8949 5.281C30.1272 5.05681 30.4132 4.94358 30.7572 4.94358C31.1303 4.94358 31.4274 5.0704 31.6485 5.32403C31.8697 5.57766 31.9858 5.91508 31.9948 6.33856H29.4883Z" fill="black"/>
<path d="M38.692 0H35.7745V11.8143H38.692V0Z" fill="black"/>
<path d="M48.2665 7.40744C48.2665 8.84318 47.8957 9.96188 47.1518 10.7635C46.4079 11.5675 45.3669 11.9683 44.0288 11.9683C42.6907 11.9683 41.7257 11.5584 40.9661 10.7364C40.2066 9.91659 39.8268 8.80469 39.8268 7.40744C39.8268 6.0102 40.1977 4.86432 40.9416 4.07172C41.6855 3.27911 42.7287 2.88281 44.0713 2.88281C44.9023 2.88281 45.635 3.06624 46.2717 3.43311C46.9083 3.79997 47.3998 4.32535 47.746 5.00925C48.0923 5.69315 48.2643 6.49255 48.2643 7.40518M42.789 7.40518C42.789 8.15928 42.8851 8.73222 43.0794 9.12852C43.2738 9.52256 43.5999 9.72184 44.0556 9.72184C44.5113 9.72184 44.8286 9.52482 45.014 9.12852C45.1994 8.73448 45.2932 8.15928 45.2932 7.40518C45.2932 6.65107 45.1994 6.09172 45.0095 5.70901C44.8196 5.32629 44.4979 5.13607 44.04 5.13607C43.582 5.13607 43.2715 5.32629 43.0772 5.70674C42.8828 6.08719 42.7868 6.65334 42.7868 7.40744" fill="black"/>
<path d="M52.3412 3.03906H49.4237V11.8143H52.3412V3.03906Z" fill="black"/>
<path d="M52.3412 0H49.4237V1.97698H52.3412V0Z" fill="black"/>
<path d="M58.2521 9.57459C58.6453 9.57459 59.1144 9.47269 59.6617 9.27114V11.4791C59.2685 11.6535 58.8932 11.7803 58.538 11.855C58.1829 11.9298 57.7651 11.9683 57.2871 11.9683C56.3086 11.9683 55.6005 11.7191 55.1671 11.2209C54.7359 10.7227 54.5192 9.95731 54.5192 8.92466V5.30813H53.4984V3.03902H54.5192V0.79935L57.4591 0.280762V3.03902H59.3199V5.30813H57.4591V8.72311C57.4591 9.29152 57.7227 9.57459 58.2499 9.57459" fill="black"/>
<path d="M65.0052 9.57459C65.3984 9.57459 65.8675 9.47269 66.4148 9.27114V11.4791C66.0216 11.6535 65.6463 11.7803 65.2911 11.855C64.9359 11.9298 64.5182 11.9683 64.0402 11.9683C63.0617 11.9683 62.3536 11.7191 61.9224 11.2209C61.489 10.7227 61.2723 9.95731 61.2723 8.92466V5.30813H60.2492V3.03902H61.2723V0.765382L64.2122 0.280762V3.03902H66.0752V5.30813H64.2122V8.72311C64.2122 9.29152 64.4758 9.57459 65.003 9.57459" fill="black"/>
<path d="M74.2111 3.91772C73.5186 3.22929 72.5335 2.88281 71.2601 2.88281C69.922 2.88281 68.8922 3.27911 68.1706 4.07172C67.4491 4.86432 67.0894 6.00114 67.0894 7.48217C67.0894 8.96321 67.4781 10.023 68.2578 10.802C69.0374 11.5788 70.1298 11.9683 71.5371 11.9683C72.214 11.9683 72.7948 11.9207 73.2818 11.8279C73.7666 11.7351 74.2357 11.5697 74.6914 11.3297L74.2424 9.35271C73.9118 9.48859 73.5968 9.59502 73.2997 9.66523C72.8708 9.76713 72.3994 9.81695 71.8856 9.81695C71.3227 9.81695 70.8804 9.67655 70.5542 9.39801C70.2281 9.11946 70.0561 8.73448 70.036 8.24307H75.2499V6.89565C75.2499 5.60031 74.9036 4.60616 74.2089 3.91772M70.094 6.33856C70.1342 5.85847 70.2683 5.50519 70.5006 5.281C70.7329 5.05681 71.0189 4.94358 71.3629 4.94358C71.736 4.94358 72.0331 5.0704 72.2542 5.32403C72.4754 5.57766 72.5915 5.91508 72.6005 6.33856H70.094Z" fill="black"/>
<path d="M75.967 10.2993C75.967 9.35953 76.7198 8.59863 77.6446 8.59863C78.5695 8.59863 79.3223 9.3618 79.3223 10.2993C79.3223 11.2369 78.5717 12 77.6446 12C76.7176 12 75.967 11.2391 75.967 10.2993Z" fill="#86BC25"/>
</g>
<defs>
<clipPath id="clip0_778_775">
<rect width="63.75" height="12" fill="white" transform="translate(16)"/>
</clipPath>
</defs>
</svg>
