<svg width="120" height="120" viewBox="0 0 120 120" fill="none" xmlns="http://www.w3.org/2000/svg">
<path d="M79 47V82H35V47H79Z" fill="white" stroke="#007CB0" stroke-width="4" stroke-linecap="round"/>
<rect x="45.6" y="55.8" width="14.4" height="1.5" rx="0.75" fill="#E0E0E0"/>
<rect x="45.6" y="60" width="8.4" height="1.5" rx="0.75" fill="#E0E0E0"/>
<rect x="40.2" y="54" width="3" height="9" rx="1" fill="#007CB0"/>
<rect x="45.6" y="68.7" width="14.4" height="1.5" rx="0.75" fill="#E0E0E0"/>
<rect x="45.6" y="72.9" width="8.4" height="1.5" rx="0.75" fill="#E0E0E0"/>
<path fill-rule="evenodd" clip-rule="evenodd" d="M65.4 56.55C65.4 56.1358 65.7358 55.8 66.15 55.8H73.05C73.4642 55.8 73.8 56.1358 73.8 56.55C73.8 56.9642 73.4642 57.3 73.05 57.3H66.15C65.7358 57.3 65.4 56.9642 65.4 56.55Z" fill="#E0E0E0"/>
<rect x="65.4" y="60" width="8.4" height="1.5" rx="0.75" fill="#E0E0E0"/>
<path fill-rule="evenodd" clip-rule="evenodd" d="M65.4 69.75C65.4 69.3358 65.7358 69 66.15 69H73.05C73.4642 69 73.8 69.3358 73.8 69.75C73.8 70.1642 73.4642 70.5 73.05 70.5H66.15C65.7358 70.5 65.4 70.1642 65.4 69.75Z" fill="#E0E0E0"/>
<rect x="65.4" y="73.2" width="8.4" height="1.5" rx="0.75" fill="#E0E0E0"/>
<rect x="40.2" y="66.9" width="3" height="9" rx="1" fill="#007CB0"/>
<path fill-rule="evenodd" clip-rule="evenodd" d="M86.957 40.3393V73.2963C86.957 74.105 86.4179 74.6441 85.6092 74.6441C84.8005 74.6441 84.2613 74.105 84.2613 73.2963V41.6871H44.5393C43.7305 41.6871 43.1914 41.148 43.1914 40.3393C43.1914 39.5305 43.7305 38.9914 44.5393 38.9914L85.6092 38.9914C86.4179 38.9914 86.957 39.5305 86.957 40.3393Z" fill="#E0E0E0"/>
<path fill-rule="evenodd" clip-rule="evenodd" d="M92.3484 34.9478V67.9049C92.3484 68.7136 91.8092 69.2527 91.0005 69.2527C90.1918 69.2527 89.6527 68.7136 89.6527 67.9049V36.2957H49.9306C49.1219 36.2957 48.5828 35.7566 48.5828 34.9478C48.5828 34.1391 49.1219 33.6 49.9306 33.6H91.0005C91.8092 33.6 92.3484 34.1391 92.3484 34.9478Z" fill="#E0E0E0"/>
</svg>
