<svg width="24" height="24" viewBox="0 0 24 24" fill="none" xmlns="http://www.w3.org/2000/svg">
<path fill-rule="evenodd" clip-rule="evenodd" d="M7.58987 4.50806L7.5 4.5C7.25454 4.5 7.05039 4.67688 7.00805 4.91012L7 5L7 17.792L4.85355 15.6464C4.65829 15.4512 4.34171 15.4512 4.14645 15.6464C3.97288 15.82 3.9536 16.0894 4.08859 16.2843L4.14645 16.3536L7.14645 19.3536C7.32001 19.5271 7.58944 19.5464 7.78431 19.4114L7.85355 19.3536L10.8536 16.3536C11.0488 16.1583 11.0488 15.8417 10.8536 15.6464C10.68 15.4729 10.4106 15.4536 10.2157 15.5886L10.1464 15.6464L8 17.792L8 5C8 4.75454 7.82312 4.55039 7.58987 4.50806ZM20.5 17C20.7761 17 21 17.2239 21 17.5C21 17.7761 20.7761 18 20.5 18H13.5C13.2239 18 13 17.7761 13 17.5C13 17.2239 13.2239 17 13.5 17H20.5ZM18.5 14C18.7761 14 19 14.2239 19 14.5C19 14.7761 18.7761 15 18.5 15H13.5C13.2239 15 13 14.7761 13 14.5C13 14.2239 13.2239 14 13.5 14H18.5ZM16.5 11C16.7761 11 17 11.2239 17 11.5C17 11.7761 16.7761 12 16.5 12H13.5C13.2239 12 13 11.7761 13 11.5C13 11.2239 13.2239 11 13.5 11H16.5ZM15.5 8C15.7761 8 16 8.22386 16 8.5C16 8.77614 15.7761 9 15.5 9H13.5C13.2239 9 13 8.77614 13 8.5C13 8.22386 13.2239 8 13.5 8H15.5ZM14.5 5C14.7761 5 15 5.22386 15 5.5C15 5.77614 14.7761 6 14.5 6H13.5C13.2239 6 13 5.77614 13 5.5C13 5.22386 13.2239 5 13.5 5H14.5Z" fill="black"/>
</svg>
